<?xml version="1.0" standalone="no"?>
<!DOCTYPE svg PUBLIC "-//W3C//DTD SVG 20010904//EN"
 "http://www.w3.org/TR/2001/REC-SVG-20010904/DTD/svg10.dtd">
<svg version="1.0" xmlns="http://www.w3.org/2000/svg"
 width="600.000000pt" height="600.000000pt" viewBox="0 0 600.000000 600.000000"
 preserveAspectRatio="xMidYMid meet">
<metadata>
Created by potrace 1.14, written by Peter Selinger 2001-2017
</metadata>
<g transform="translate(0.000000,600.000000) scale(0.100000,-0.100000)"
fill="#000000" stroke="none">
<path d="M0 3000 l0 -3000 3000 0 3000 0 0 3000 0 3000 -3000 0 -3000 0 0
-3000z m3370 2109 c393 -44 721 -187 967 -422 292 -280 460 -654 525 -1172 19
-158 16 -616 -5 -745 -93 -550 -336 -897 -695 -991 -92 -24 -269 -29 -352 -10
-190 45 -340 192 -392 384 -6 26 -15 47 -18 47 -3 0 -19 -24 -37 -53 -151
-249 -384 -389 -648 -390 -178 -1 -285 41 -400 157 -157 158 -225 373 -225
711 0 454 142 890 380 1168 112 130 278 244 424 290 97 30 354 32 461 3 96
-26 206 -83 304 -156 72 -54 81 -65 81 -93 0 -18 -27 -331 -60 -697 -33 -366
-60 -692 -60 -725 0 -98 19 -185 56 -264 64 -138 152 -191 312 -191 142 0 243
38 341 126 125 112 232 317 282 539 59 267 65 724 13 1040 -109 654 -482 1068
-1079 1195 -282 60 -598 64 -850 9 -355 -76 -675 -270 -910 -549 -310 -370
-495 -946 -495 -1540 1 -972 444 -1622 1225 -1794 345 -76 793 -28 1075 114
33 16 63 30 68 30 4 0 23 -41 42 -91 38 -103 44 -90 -60 -143 -241 -124 -690
-186 -1031 -141 -350 46 -601 143 -849 329 -382 286 -608 725 -685 1334 -18
142 -21 488 -5 657 53 554 223 1005 513 1360 346 423 805 653 1377 689 78 5
310 -4 410 -15z"/>
<path d="M2975 3881 c-237 -68 -426 -286 -535 -621 -105 -318 -134 -678 -74
-918 72 -290 265 -411 541 -338 182 48 349 230 454 494 30 76 32 88 84 682 48
555 51 606 36 617 -35 28 -139 72 -204 87 -89 21 -225 19 -302 -3z"/>
</g>
</svg>
